<svg width="16" height="16" viewBox="0 0 16 16" fill="none" xmlns="http://www.w3.org/2000/svg">
    <path d="M15.5 14H15V13C15 12.4688 14.5312 12 14 12V7L12 7V12H9V7L7 7L7 12L4 12L4 7L2 7L2 12C1.4375 12 1 12.4688 1 13L1 14H0.5C0.21875 14 0 14.25 0 14.5L0 15.5C0 15.7812 0.21875 16 0.5 16L15.5 16C15.75 16 16 15.7813 16 15.5V14.5C16 14.25 15.75 14 15.5 14ZM15.6562 2.90625L8.34375 0.09375C8.25 0.03125 8.09375 0 8 0C7.875 0 7.71875 0.03125 7.625 0.09375L0.3125 2.90625C0.125 2.96875 0 3.15625 0 3.375L0 4.5C0 4.78125 0.21875 5 0.5 5H1L1 5.5C1 5.78125 1.21875 6 1.5 6L14.5 6C14.75 6 15 5.78125 15 5.5V5H15.5C15.75 5 16 4.78125 16 4.5V3.375C16 3.15625 15.8438 2.96875 15.6562 2.90625ZM8 4.5C7.4375 4.5 7 4.0625 7 3.5C7 2.96875 7.4375 2.5 8 2.5C8.53125 2.5 9 2.96875 9 3.5C9 4.0625 8.53125 4.5 8 4.5Z"
          fill="#00C77F"/>
</svg>
