<svg width="17" height="16" viewBox="0 0 17 16" fill="none" xmlns="http://www.w3.org/2000/svg">
    <path d="M8.06079 0C3.62329 0 0.060791 3.59375 0.060791 8C0.060791 12.4375 3.62329 16 8.06079 16C12.467 16 16.0608 12.4375 16.0608 8C16.0608 3.59375 12.467 0 8.06079 0ZM11.6545 6.625L7.65454 10.625C7.49829 10.8125 7.27954 10.875 7.06079 10.875C6.81079 10.875 6.59204 10.8125 6.43579 10.625L4.43579 8.625C4.09204 8.28125 4.09204 7.75 4.43579 7.40625C4.77954 7.0625 5.31079 7.0625 5.65454 7.40625L7.06079 8.78125L10.4358 5.40625C10.7795 5.0625 11.3108 5.0625 11.6545 5.40625C11.9983 5.75 11.9983 6.28125 11.6545 6.625Z"
          fill="#33C800"/>
</svg>
