<svg width="17" height="16" viewBox="0 0 17 16" fill="none" xmlns="http://www.w3.org/2000/svg">
    <path d="M15.0608 2.3125V3.71875C15.0608 5 11.9045 6 8.06079 6C4.18579 6 1.06079 5 1.06079 3.71875L1.06079 2.3125C1.06079 1.03125 4.18579 0 8.06079 0C11.9045 0 15.0608 1.03125 15.0608 2.3125ZM15.0608 5.5L15.0608 8.71875C15.0608 10 11.9045 11 8.06079 11C4.18579 11 1.06079 10 1.06079 8.71875L1.06079 5.5C2.56079 6.5625 5.31079 7.03125 8.06079 7.03125C10.7795 7.03125 13.5295 6.5625 15.0608 5.5ZM15.0608 10.5V13.7188C15.0608 15 11.9045 16 8.06079 16C4.18579 16 1.06079 15 1.06079 13.7188L1.06079 10.5C2.56079 11.5625 5.31079 12.0312 8.06079 12.0313C10.7795 12.0313 13.5295 11.5625 15.0608 10.5Z"
          fill="#595284"/>
</svg>
