<svg width="17" height="16" viewBox="0 0 17 16" fill="none" xmlns="http://www.w3.org/2000/svg">
    <path d="M10.0608 0V4L14.0608 4L10.0608 0ZM9.06079 4V0L3.56079 0C2.71704 0 2.06079 0.6875 2.06079 1.5L2.06079 14.5C2.06079 15.3438 2.71704 16 3.56079 16H12.5608C13.3733 16 14.0608 15.3438 14.0608 14.5L14.0608 5L10.0608 5C9.49829 5 9.06079 4.5625 9.06079 4ZM10.5608 13L5.56079 13C5.27954 13 5.06079 12.7812 5.06079 12.5C5.06079 12.25 5.27954 12 5.56079 12L10.5608 12C10.8108 12 11.0608 12.25 11.0608 12.5C11.0608 12.7813 10.8108 13 10.5608 13ZM10.5608 11L5.56079 11C5.27954 11 5.06079 10.7812 5.06079 10.5C5.06079 10.25 5.27954 10 5.56079 10L10.5608 10C10.8108 10 11.0608 10.25 11.0608 10.5C11.0608 10.7813 10.8108 11 10.5608 11ZM11.0608 8.5C11.0608 8.78125 10.8108 9 10.5608 9L5.56079 9C5.27954 9 5.06079 8.78125 5.06079 8.5C5.06079 8.25 5.27954 8 5.56079 8L10.5608 8C10.8108 8 11.0608 8.25 11.0608 8.5Z"
          fill="#244983"/>
</svg>
